# xmcd CD database file
#
# Track frame offsets:
#	150
#	18370
#	38637
#	57137
#	78515
#	99675
#	123722
#	142202
#	163112
#	185610
#	202500
#
# Disc length: 3004 seconds
#
# Revision: 0
# Processed by: cddbd v1.5.1PL0 Copyright (c) Steve Scherf et al.
# Submitted via: CDex 1.51
#
DISCID=930bba0b
DTITLE=Soilwork - A Predator's Portrait
DYEAR=2001
DGENRE=Death Metal
TTITLE0=Bastard Chain
TTITLE1=Like the Average Stalker
TTITLE2=Needlefeast
TTITLE3=Neurotica Rampage
TTITLE4=The Analyst
TTITLE5=Grand Failure Anthem
TTITLE6=Structure Divine
TTITLE7=Shadowchild
TTITLE8=Final Fatal Force
TTITLE9=A Predator's Portrait
TTITLE10=Asylum Dance
EXTD=YEAR: 2001
EXTT0=
EXTT1=
EXTT2=
EXTT3=
EXTT4=
EXTT5=
EXTT6=
EXTT7=
EXTT8=
EXTT9=
EXTT10=
PLAYORDER=
